<?xml version="1.0" standalone="no"?>
<!DOCTYPE svg PUBLIC "-//W3C//DTD SVG 20010904//EN"
 "http://www.w3.org/TR/2001/REC-SVG-20010904/DTD/svg10.dtd">
<svg version="1.0" xmlns="http://www.w3.org/2000/svg"
 width="1066.000000pt" height="1280.000000pt" viewBox="0 0 1066.000000 1280.000000"
 preserveAspectRatio="xMidYMid meet">
<metadata>
Created by potrace 1.15, written by Peter Selinger 2001-2017
</metadata>
<g transform="translate(0.000000,1280.000000) scale(0.100000,-0.100000)"
fill="#000000" stroke="none">
<path d="M7525 12771 c-161 -42 -197 -56 -340 -126 -289 -142 -432 -299 -535
-590 -60 -171 -71 -238 -78 -505 -4 -135 -11 -251 -15 -258 -5 -7 -27 -22 -50
-33 -23 -12 -52 -31 -65 -42 -19 -18 -40 -22 -125 -27 -67 -4 -116 -13 -142
-25 -35 -16 -68 -19 -285 -19 -204 -1 -257 -4 -315 -19 -38 -10 -86 -22 -105
-27 -19 -5 -64 -18 -100 -30 -36 -11 -83 -26 -104 -33 -33 -10 -46 -22 -72
-67 -18 -30 -57 -77 -88 -103 -31 -26 -70 -68 -87 -93 -34 -50 -148 -244 -219
-374 -25 -47 -93 -157 -151 -245 -58 -88 -135 -209 -171 -270 -65 -109 -271
-499 -298 -563 -7 -19 -32 -54 -56 -80 -81 -86 -81 -195 0 -392 15 -36 41
-108 58 -160 16 -52 52 -142 80 -199 49 -102 51 -105 228 -278 99 -96 199
-188 224 -203 24 -16 62 -45 85 -65 l40 -37 -39 -76 c-76 -149 -100 -205 -100
-232 0 -14 18 -61 40 -104 47 -91 50 -125 20 -261 -11 -49 -21 -142 -24 -205
-2 -63 -8 -151 -14 -195 -6 -44 -11 -83 -11 -87 -1 -4 -9 -15 -20 -25 -10 -10
-21 -31 -23 -48 -3 -16 -13 -59 -21 -95 -35 -143 -40 -179 -40 -270 l0 -94 71
-66 c77 -70 102 -114 79 -137 -7 -7 -44 -22 -82 -33 -120 -34 -146 -70 -106
-149 38 -74 28 -95 -77 -160 -29 -18 -62 -47 -74 -63 -19 -27 -25 -30 -62 -26
-23 3 -90 25 -150 49 -108 43 -605 285 -721 351 -33 18 -80 40 -105 47 -25 7
-60 26 -78 42 -37 33 -45 35 -62 14 -17 -20 -34 -19 -180 10 -69 13 -153 25
-187 25 -34 0 -74 5 -89 10 -24 9 -26 14 -21 48 3 20 9 46 12 57 5 17 -1 24
-30 38 -43 21 -84 22 -91 3 -10 -26 -32 -25 -119 5 -100 34 -135 36 -158 11
-23 -25 -21 -32 7 -32 14 0 37 -5 53 -11 25 -10 26 -12 9 -18 -14 -5 -16 -10
-8 -15 19 -11 14 -61 -7 -80 -18 -17 -21 -17 -46 0 -25 16 -28 16 -78 -10 -29
-14 -63 -26 -75 -26 -55 0 -162 -85 -162 -128 0 -14 15 -43 33 -66 41 -51 47
-65 36 -93 -16 -43 -106 -22 -137 31 -38 65 -250 124 -349 97 -158 -43 -129
-168 61 -261 45 -22 107 -46 138 -52 55 -11 58 -11 117 20 37 19 76 32 99 32
46 0 99 -31 112 -66 12 -30 13 -74 3 -74 -5 0 -42 -30 -83 -66 -105 -92 -125
-100 -197 -86 -179 37 -173 37 -234 8 -52 -24 -58 -30 -68 -71 -15 -61 -15
-62 24 -75 19 -6 38 -16 41 -22 3 -5 1 -37 -7 -71 -10 -50 -21 -69 -60 -110
-47 -49 -49 -50 -94 -43 -26 3 -101 29 -166 56 -130 55 -199 70 -224 50 -8 -7
-36 -53 -63 -104 -54 -102 -371 -662 -436 -771 -41 -68 -91 -174 -84 -180 27
-23 185 -83 543 -206 277 -96 464 -166 512 -192 22 -12 20 -16 -93 -167 -175
-234 -249 -350 -330 -515 -152 -312 -263 -650 -316 -960 -18 -110 -22 -170
-22 -390 -1 -265 7 -354 45 -547 36 -179 118 -383 194 -483 63 -81 95 -137 95
-164 0 -56 -73 -131 -127 -131 -12 0 -71 16 -132 36 -159 53 -194 42 -277 -88
-61 -95 -90 -94 -194 8 -63 61 -46 61 -226 4 -164 -53 -222 -86 -196 -112 24
-24 145 -38 377 -44 167 -5 250 -11 274 -20 41 -17 99 -18 188 -2 58 10 88 8
201 -8 85 -13 138 -17 148 -11 25 14 145 0 196 -23 40 -17 56 -19 156 -11 62
4 115 10 118 14 12 12 -8 26 -44 32 -20 4 -46 9 -57 13 -33 10 27 19 133 21
85 1 94 -1 99 -18 17 -65 195 -58 359 14 44 19 63 22 145 18 52 -3 120 -1 151
4 31 6 62 6 70 2 26 -14 297 -12 488 5 107 9 245 18 305 19 103 2 116 0 202
-32 l93 -33 64 17 c56 15 95 17 298 12 168 -4 248 -10 288 -21 65 -19 174 -9
245 23 50 22 61 36 45 56 -16 19 -100 31 -110 16 -5 -9 -18 -9 -54 0 -33 8
-54 9 -70 1 -16 -7 -27 -6 -41 4 -10 8 -35 14 -55 14 -24 0 -43 7 -54 19 -10
11 -41 30 -69 43 -47 21 -66 23 -197 23 -107 0 -181 -7 -283 -24 -114 -20
-145 -22 -171 -13 -42 15 -391 16 -434 1 -38 -13 -63 -2 -115 54 l-37 40 24
32 c14 18 92 99 174 181 126 126 163 171 244 294 161 244 241 403 348 690 80
214 101 262 120 277 8 6 42 19 75 27 33 9 70 19 83 22 19 6 22 3 21 -22 0 -16
-4 -38 -8 -49 -17 -43 64 -230 125 -289 62 -60 128 -80 279 -81 136 -1 177 -7
235 -30 101 -42 690 -94 725 -65 12 10 80 11 334 5 175 -4 405 -4 511 1 l193
7 80 76 79 76 127 -3 c189 -5 320 29 394 103 24 25 27 35 27 97 0 84 -27 144
-93 205 -65 60 -127 88 -261 118 -25 5 -28 9 -23 35 4 16 29 89 58 162 45 119
56 137 98 175 50 44 97 123 126 212 10 30 41 92 70 138 70 111 80 155 69 302
-15 194 -9 337 15 401 24 61 86 158 113 174 12 7 38 4 95 -14 122 -37 151 -54
158 -92 3 -18 16 -95 30 -171 31 -174 31 -239 -1 -424 -49 -286 -82 -631 -69
-718 6 -41 73 -148 112 -180 47 -38 64 -200 39 -365 -24 -163 0 -587 46 -799
28 -131 91 -342 149 -498 27 -72 49 -135 49 -140 -1 -14 -104 -73 -128 -73
-12 0 -42 10 -64 21 -46 23 -28 24 -288 -6 -89 -11 -167 -14 -227 -10 -76 6
-94 4 -98 -7 -3 -8 -19 -15 -35 -15 -28 0 -80 -26 -80 -41 0 -14 143 -56 185
-55 22 0 130 4 240 7 283 10 419 8 580 -9 313 -32 482 -38 880 -29 215 5 494
9 621 9 235 0 264 4 264 40 0 30 -82 40 -320 40 -252 1 -273 5 -290 51 -15 39
-2 72 68 169 36 50 86 135 113 190 47 99 225 607 273 780 79 288 148 702 192
1160 25 256 26 856 1 1039 -31 228 -74 389 -136 502 -16 30 -27 62 -25 72 9
33 -172 283 -257 356 l-40 33 -10 119 c-6 66 -19 144 -30 174 -10 30 -19 68
-19 85 0 17 -13 50 -30 75 -36 55 -39 80 -7 80 32 0 42 -10 68 -64 19 -41 31
-52 73 -72 104 -47 311 -58 400 -20 38 16 39 16 33 61 -20 142 -158 247 -327
248 -62 1 -84 -4 -128 -26 -63 -32 -111 -34 -169 -8 -60 28 -73 60 -73 175 l0
95 48 17 c42 15 52 25 77 71 36 69 95 123 136 123 70 0 293 -94 448 -189 122
-74 184 -85 249 -45 29 19 29 75 2 162 -11 35 -20 78 -20 96 0 116 -156 358
-236 368 -23 2 -33 13 -55 59 -21 42 -39 62 -78 87 -28 17 -51 35 -51 40 0 5
25 15 56 22 45 11 63 22 98 61 23 26 57 75 76 110 30 56 35 75 38 154 l4 90
-44 85 c-46 85 -68 109 -68 71 0 -12 -6 -21 -14 -21 -8 0 -67 20 -130 45 -64
25 -141 51 -171 57 -53 10 -55 12 -39 29 10 11 23 19 29 19 7 0 53 -18 103
-40 49 -22 99 -40 111 -40 18 0 20 4 15 28 -8 33 2 25 24 -20 11 -21 26 -34
40 -36 l24 -4 -6 114 c-3 62 -6 122 -7 133 -3 49 15 112 39 138 32 34 66 35
114 2 42 -29 76 -31 119 -10 24 13 36 14 69 4 31 -9 46 -9 66 -1 13 7 34 12
45 12 42 0 296 -91 351 -125 47 -30 61 -34 78 -25 26 14 25 32 -4 67 -18 22
-38 31 -88 40 -88 17 -230 66 -268 93 -17 12 -30 30 -30 43 0 19 1 20 16 5 13
-13 32 -15 102 -11 48 3 93 11 101 17 20 16 51 86 51 117 0 48 -29 71 -94 74
-31 2 -63 9 -71 15 -18 15 -32 60 -40 130 -12 93 -61 155 -153 191 -55 22
-228 69 -253 69 -15 0 -36 11 -50 26 -33 36 -57 47 -108 54 -51 6 -66 27 -24
32 42 5 38 38 -6 53 -19 6 -36 16 -38 22 -8 23 52 52 155 77 59 14 159 47 222
74 64 28 158 60 210 72 135 31 172 46 239 95 69 51 130 124 174 209 26 51 31
72 32 133 0 65 -3 74 -31 110 -52 64 -161 78 -267 35 -59 -23 -258 -176 -344
-264 -55 -56 -83 -95 -117 -165 -47 -94 -83 -133 -153 -162 -15 -6 -36 -25
-45 -41 -9 -17 -29 -35 -44 -42 -24 -11 -29 -10 -49 14 -12 15 -27 53 -34 89
-20 102 -33 123 -108 177 -38 28 -88 74 -112 102 -30 35 -62 60 -97 76 -59 26
-74 46 -74 100 0 34 -8 45 -80 113 -57 54 -92 96 -118 146 -33 62 -44 73 -91
96 -53 26 -80 57 -81 91 0 29 -67 88 -99 88 -55 0 -70 25 -102 165 -35 155
-35 158 -8 254 24 86 22 182 -6 263 -24 68 -171 309 -205 336 -19 15 -36 44
-51 90 -27 80 -55 110 -147 153 -197 92 -233 112 -256 140 -34 41 -33 61 9
107 35 39 58 85 48 95 -3 4 -18 3 -34 0 -36 -7 -38 9 -4 31 32 21 163 223 228
351 52 102 143 220 184 236 58 22 83 117 82 304 -2 178 -6 197 -44 209 -92 28
-82 13 -155 221 -52 146 -80 204 -134 274 -62 82 -220 217 -301 257 -99 49
-152 52 -290 15z m315 -190 c19 -8 54 -20 78 -28 57 -20 128 -75 124 -96 -2
-9 1 -17 6 -17 10 0 52 -81 52 -102 0 -9 -9 -18 -19 -21 -18 -4 -19 -7 -6 -45
10 -29 13 -72 10 -154 -5 -101 -8 -119 -35 -172 -16 -32 -28 -62 -25 -66 3 -4
-2 -30 -10 -56 -8 -27 -15 -59 -15 -71 0 -48 -16 -20 -34 59 -10 45 -21 88
-26 97 -39 81 -80 283 -80 394 0 50 -4 68 -19 81 -18 16 -153 76 -171 76 -4 0
-13 -14 -19 -31 -9 -26 -14 -29 -25 -20 -8 7 -17 23 -20 36 -3 13 -15 27 -26
30 -11 3 -24 15 -30 25 -8 15 -1 25 36 60 l45 41 87 -3 c48 -3 103 -10 122
-17z m-473 -309 c18 -20 33 -43 33 -51 0 -16 99 -251 112 -265 13 -15 10 11
-8 75 -19 69 -14 89 22 89 l27 0 -21 23 c-12 13 -22 26 -22 30 0 15 30 6 57
-17 39 -32 170 -97 191 -94 20 4 42 -38 49 -93 7 -47 2 -48 -86 -18 -34 12
-65 18 -68 15 -11 -11 31 -48 122 -108 85 -56 92 -63 115 -120 14 -34 38 -70
53 -81 52 -39 119 -18 132 43 6 26 10 28 70 35 35 3 71 13 82 20 10 8 24 15
31 15 17 0 15 -27 -4 -38 -13 -7 -13 -12 -1 -38 9 -16 23 -51 34 -78 10 -27
23 -51 30 -53 17 -6 42 37 52 88 l8 44 11 -28 c15 -36 15 -79 0 -112 -10 -23
-16 -26 -42 -21 -17 4 -74 13 -126 20 -53 8 -123 21 -157 30 -144 37 -519 189
-554 225 -9 9 -35 61 -58 116 -24 55 -56 125 -73 155 -36 67 -88 198 -88 223
0 28 39 12 77 -31z m851 -335 c28 1 52 1 52 0 0 -2 -9 -20 -20 -42 -11 -22
-20 -52 -20 -67 0 -26 -2 -28 -27 -22 -75 19 -98 31 -97 53 3 94 2 92 32 84
15 -5 51 -7 80 -6z m-2264 -1369 c12 -48 7 -145 -10 -159 -24 -20 -72 -93 -79
-121 -5 -20 -1 -28 20 -42 27 -18 85 -126 85 -158 0 -19 -47 -48 -78 -48 -23
0 -28 10 -38 76 -4 27 -12 52 -18 56 -6 4 -72 8 -146 8 -74 0 -140 4 -147 8
-9 6 -7 26 8 87 45 176 118 252 280 295 99 25 115 25 123 -2z m1195 -173 c14
-15 -89 -78 -183 -111 -29 -11 -41 -11 -47 -3 -4 6 -18 12 -33 12 -14 0 -26 4
-26 10 0 14 -88 0 -118 -19 -13 -9 -26 -14 -28 -12 -2 2 0 24 4 49 l8 44 79
12 c178 28 326 35 344 18z m670 -119 c6 -8 40 -24 74 -36 101 -37 177 -72 177
-82 0 -29 -34 -136 -73 -228 l-44 -105 -34 3 c-55 6 -139 42 -155 67 -14 22
-14 28 5 71 29 65 27 97 -8 127 l-29 24 30 86 c17 48 34 87 38 87 4 0 13 -6
19 -14z m-991 -18 c28 -28 -2 -88 -45 -88 -18 0 -43 29 -43 50 0 40 60 66 88
38z m596 -343 c31 -16 56 -30 56 -32 0 -18 -46 -86 -76 -113 -31 -27 -43 -31
-71 -27 -45 8 -62 23 -85 75 -21 48 -18 84 10 116 23 25 94 17 166 -19z
m-1761 -75 c23 -5 63 -12 89 -15 46 -6 46 -6 38 -36 -5 -16 -12 -62 -15 -102
-4 -40 -11 -89 -16 -109 -9 -33 -14 -38 -39 -38 -27 0 -29 3 -36 46 -7 50 -33
84 -63 84 -10 0 -22 8 -25 17 -6 15 13 163 22 163 2 0 22 -4 45 -10z m895 -75
c2 -31 -3 -63 -13 -86 l-17 -37 -45 16 c-50 19 -58 30 -49 67 7 26 92 98 110
92 6 -2 12 -25 14 -52z m1174 -255 c29 -11 61 -20 72 -20 23 0 20 -9 -47 -127
-31 -55 -63 -98 -80 -108 -27 -16 -31 -16 -75 0 -26 10 -50 20 -54 24 -4 3 9
31 28 61 19 30 41 76 49 102 17 57 33 88 45 88 5 0 33 -9 62 -20z m-57 -411
c4 -11 40 -70 80 -130 54 -80 76 -122 81 -155 5 -34 22 -65 64 -122 50 -66
140 -222 228 -394 27 -53 28 -49 -40 -161 -37 -59 -63 -148 -94 -322 -20 -112
-56 -225 -92 -289 -41 -74 -50 -76 -120 -33 -33 20 -68 37 -79 37 -10 0 -43
-16 -73 -36 -50 -32 -60 -35 -107 -31 -66 7 -162 50 -201 90 -17 18 -40 57
-52 87 -12 30 -33 75 -47 100 -33 59 -42 157 -23 231 6 20 9 88 8 151 l-2 116
37 60 c47 75 67 132 67 186 0 35 9 54 59 122 32 44 72 92 88 105 24 20 31 36
36 77 3 28 17 77 29 109 26 63 125 223 138 223 5 0 12 -9 15 -21z m-1087 -25
c16 -11 22 -25 22 -54 0 -44 -20 -70 -55 -70 -68 0 -85 104 -22 130 30 12 30
12 55 -6z m2719 -576 c18 -18 33 -39 33 -48 0 -9 6 -25 14 -35 12 -17 12 -24
0 -46 -10 -20 -11 -35 -3 -62 14 -51 27 -167 18 -167 -9 0 -35 66 -43 115 -4
21 -17 57 -28 79 -11 22 -21 50 -23 63 -4 38 -41 71 -73 65 l-27 -5 34 37 c19
20 42 36 50 36 8 0 30 -14 48 -32z m-263 -58 c43 -59 64 -111 76 -195 7 -44
16 -88 22 -98 11 -21 18 -127 7 -127 -4 0 -9 15 -12 33 -6 35 -106 318 -125
354 -14 26 -16 76 -3 71 6 -1 21 -19 35 -38z m-1718 -1115 c98 -50 121 -69
105 -89 -7 -8 -58 -30 -114 -47 -56 -18 -103 -33 -103 -33 -1 -1 -5 -11 -8
-23 -7 -21 -4 -23 33 -23 61 0 144 -36 247 -106 51 -34 100 -64 109 -66 9 -1
16 -7 16 -13 0 -17 -34 -18 -66 -1 -16 8 -70 29 -120 45 -205 68 -286 98 -306
117 -17 16 -34 18 -102 16 -45 -1 -89 2 -97 8 -12 8 -11 10 7 10 12 0 43 9 70
21 26 11 72 25 102 29 76 13 79 18 73 101 -4 54 -2 73 9 80 28 17 77 8 145
-26z m1635 -84 c93 -32 187 -70 209 -85 51 -34 95 -95 116 -161 25 -79 15
-113 -60 -193 -78 -83 -92 -109 -117 -225 -20 -96 -40 -126 -84 -127 -39 0
-171 41 -340 106 l-170 66 -41 57 c-63 86 -68 99 -68 181 1 59 8 96 37 178 19
56 46 121 59 144 43 78 155 133 246 122 24 -3 120 -32 213 -63z m-1778 -254
c39 -17 68 -47 44 -47 -9 0 -38 5 -67 12 -43 10 -53 9 -66 -4 -15 -14 -13 -17
20 -28 34 -11 47 -32 26 -45 -5 -3 -27 3 -49 14 l-40 21 -43 -46 c-31 -32 -51
-45 -66 -42 -19 3 -11 15 61 91 89 95 109 103 180 74z m2377 -274 c74 -30 146
-65 159 -78 35 -34 53 -113 40 -183 -13 -70 -22 -87 -67 -134 -42 -44 -65 -47
-194 -24 -137 25 -206 53 -260 107 -46 46 -48 50 -48 106 1 99 65 223 133 257
43 21 75 14 237 -51z m-2602 -80 c213 -129 356 -232 341 -248 -9 -8 -160 63
-254 119 -142 85 -305 210 -305 235 0 19 61 -11 218 -106z m1729 -224 c155
-99 168 -106 250 -125 51 -12 84 -28 133 -64 36 -27 79 -52 95 -55 112 -26
190 -61 271 -121 56 -42 99 -66 124 -70 29 -5 51 -20 93 -63 56 -57 77 -102
77 -166 l0 -30 -20 33 c-12 19 -28 32 -40 32 -11 0 -20 5 -20 10 0 6 -7 10
-15 10 -10 0 -15 -10 -15 -28 0 -34 -16 -52 -47 -52 -18 0 -25 -7 -29 -30 -8
-36 -24 -40 -24 -5 0 14 -4 25 -10 25 -5 0 -10 -4 -10 -10 0 -18 -26 -11 -47
13 -12 12 -38 67 -58 122 -58 157 -66 165 -259 294 -164 109 -175 115 -259
132 -119 24 -240 84 -319 158 -64 60 -71 87 -20 75 15 -4 82 -42 149 -85z
m-532 44 c-36 -28 -159 -80 -230 -97 -117 -28 -114 -26 -59 -50 84 -36 124
-65 124 -90 0 -13 14 -49 31 -81 17 -31 28 -59 25 -62 -11 -11 -196 16 -239
35 -25 11 -63 36 -85 57 -35 31 -52 38 -109 46 -92 13 -103 17 -103 40 0 25
-16 57 -43 87 l-20 22 22 0 c17 0 21 4 16 19 -5 16 1 19 37 23 30 3 52 -1 73
-14 17 -10 42 -18 56 -18 15 0 29 -7 33 -15 7 -19 40 -19 74 -1 15 8 70 26
122 41 52 16 129 38 170 51 41 13 86 23 100 23 25 0 25 0 5 -16z m-556 -272
c8 -5 11 -16 6 -30 -5 -15 -2 -21 10 -21 24 0 0 -39 -32 -51 -20 -7 -35 -5
-65 10 -38 19 -39 19 -18 34 16 11 19 21 14 41 -6 25 -4 26 32 26 22 0 45 -4
53 -9z m985 -81 c188 -48 576 -202 706 -279 64 -39 118 -86 108 -96 -9 -9
-110 31 -223 87 -60 31 -182 81 -270 113 -279 100 -465 179 -465 197 0 13 22
10 144 -22z m-1461 -124 c120 -23 187 -62 187 -107 0 -35 -52 -181 -71 -200
-23 -23 -88 -25 -148 -5 -52 19 -144 82 -198 136 -128 129 -7 221 230 176z
m-4563 -46 c71 -10 222 -73 263 -108 16 -15 16 -17 -5 -39 -32 -34 -13 -47 47
-32 100 25 391 -14 481 -66 51 -28 99 -66 99 -77 0 -43 -290 -59 -453 -24 -99
20 -177 48 -224 79 l-33 23 -42 -29 c-24 -15 -46 -34 -50 -41 -5 -7 -23 -16
-42 -20 -19 -3 -40 -11 -48 -17 -31 -26 -20 -41 158 -207 l46 -43 107 30 c59
17 130 33 157 37 58 8 64 21 12 29 -21 3 -58 11 -83 17 -25 6 -86 10 -136 9
-90 -2 -93 -2 -128 30 -36 31 -36 32 -17 46 18 12 25 11 58 -5 47 -24 122 -39
233 -47 47 -4 128 -13 180 -22 106 -17 189 -13 244 14 35 16 37 16 58 -4 16
-14 42 -22 84 -26 81 -6 131 -34 222 -121 l76 -73 22 -102 21 -101 -36 -10
c-72 -21 -178 -24 -219 -6 -20 9 -110 39 -200 66 -89 28 -223 73 -297 100
-143 53 -293 96 -302 86 -9 -9 22 -39 59 -57 18 -8 76 -30 128 -48 155 -53
268 -96 385 -146 61 -26 145 -59 188 -74 94 -34 108 -45 77 -61 -34 -18 -107
-6 -200 33 -82 35 -399 160 -450 177 -55 18 -127 43 -159 55 -33 12 -520 476
-542 516 -9 17 -3 23 58 51 l68 32 -76 7 c-42 3 -82 10 -88 13 -17 11 5 45 33
52 18 4 22 11 19 29 -6 28 10 39 34 25 14 -9 27 -8 56 4 38 17 52 42 17 32
-11 -3 -29 -9 -40 -12 -27 -7 -25 11 3 31 23 17 38 17 177 -5z m4024 -102 c9
-12 16 -32 16 -43 -1 -16 -7 -13 -35 20 -39 46 -47 72 -16 55 11 -5 27 -20 35
-32z m-78 -84 c15 -36 11 -97 -8 -121 -8 -10 -16 -9 -37 5 -14 11 -31 22 -38
26 -17 10 -50 -30 -58 -70 -7 -42 -29 -44 -50 -4 -18 35 -19 97 -2 128 l13 23
26 -21 c38 -30 54 -25 84 25 14 25 32 45 40 45 8 0 22 -16 30 -36z m90 -131
c-3 -26 -17 -64 -31 -85 -26 -40 -89 -78 -127 -78 -21 0 -20 2 8 19 49 30 98
86 124 141 13 27 26 50 28 50 3 0 2 -21 -2 -47z m-257 -157 c12 -14 10 -16 -8
-16 -22 0 -61 32 -61 50 0 13 51 -13 69 -34z m-3865 -653 c169 -217 210 -265
257 -304 30 -24 80 -70 111 -101 31 -32 65 -58 76 -58 31 0 40 -20 44 -103 l3
-78 -45 8 c-25 4 -119 7 -210 6 -162 -1 -291 -16 -407 -47 -47 -12 -70 -8 -44
9 5 3 15 30 21 59 8 39 37 97 102 203 51 81 100 169 109 194 l18 46 -37 20
c-20 11 -72 33 -114 48 -79 28 -88 38 -68 76 11 20 106 79 127 79 7 0 33 -26
57 -57z m866 -708 c4 -23 17 -35 75 -64 78 -40 88 -61 43 -94 l-27 -20 -53 28
c-29 15 -74 38 -100 52 -27 13 -48 26 -48 29 0 16 33 65 56 83 34 26 48 23 54
-14z m5499 -262 c7 -32 21 -74 31 -93 19 -37 70 -326 70 -395 0 -22 7 -90 16
-151 l17 -111 -27 -54 c-76 -155 -144 -274 -158 -277 -18 -3 -34 31 -48 106
-5 30 -13 58 -16 64 -4 6 -15 51 -24 102 -10 50 -34 149 -54 221 -56 202 -47
307 37 457 42 75 123 188 135 188 5 0 15 -26 21 -57z m-2794 -475 c-4 -13 -9
-36 -12 -53 -4 -19 -28 -52 -65 -89 -89 -89 -160 -226 -127 -247 17 -10 -6
-39 -31 -39 -30 0 -68 -39 -119 -123 -27 -45 -68 -107 -91 -137 -22 -30 -48
-76 -57 -101 -13 -37 -24 -49 -50 -58 -48 -18 -89 -55 -106 -99 -13 -33 -21
-39 -66 -51 -56 -14 -151 -72 -195 -119 l-29 -31 -101 6 c-123 7 -190 -7 -181
-38 4 -13 1 -21 -11 -26 -20 -8 -50 10 -46 28 5 18 -18 29 -64 29 -70 0 -104
-10 -104 -32 0 -30 -27 -32 -61 -4 -37 31 -54 32 -94 6 -22 -14 -39 -18 -71
-13 -33 4 -50 1 -78 -17 -20 -12 -36 -19 -36 -16 0 9 79 79 104 92 11 6 89 14
172 18 83 3 185 10 225 15 41 6 118 15 172 21 142 17 268 61 312 110 11 12 49
45 84 73 42 34 69 64 81 92 10 23 38 58 62 78 23 19 58 62 77 94 19 32 46 76
61 98 15 22 46 76 70 120 23 44 65 105 94 136 88 97 125 152 141 206 15 53 30
67 84 84 50 15 64 11 56 -13z m571 -286 c-15 -26 -42 -80 -61 -120 -29 -61
-58 -96 -177 -218 -135 -138 -311 -297 -463 -419 -86 -69 -321 -225 -339 -225
-17 0 13 27 118 104 106 79 166 139 152 153 -9 10 -73 -23 -120 -61 -47 -38
-238 -150 -276 -161 -42 -12 -130 -69 -126 -81 3 -7 -21 -13 -67 -17 -40 -4
-115 -21 -167 -38 -103 -35 -143 -38 -390 -29 -108 4 -130 3 -159 -13 -33 -19
-55 -19 -138 -1 -25 5 -43 0 -77 -20 -67 -39 -88 -35 -46 9 57 59 100 67 405
75 471 14 594 47 925 253 103 64 161 106 173 126 10 17 49 51 87 75 38 25 107
83 155 130 48 47 100 94 116 103 16 10 31 25 34 35 8 24 72 78 94 78 21 0 33
-22 25 -45 -19 -48 95 22 147 92 56 74 101 151 94 162 -14 23 9 62 47 82 21
11 42 28 46 37 6 16 7 16 10 -1 2 -10 -8 -39 -22 -65z m-3842 28 c30 -11 27
-30 -12 -73 -30 -32 -55 -40 -337 -107 -223 -53 -245 -57 -245 -39 0 16 108
147 131 160 10 5 72 16 136 24 65 9 147 22 183 29 81 17 112 19 144 6z m-590
-1243 c17 -27 -5 -52 -47 -52 -23 0 -44 -8 -61 -24 -26 -25 -56 -23 -56 3 0
25 20 70 36 83 24 18 115 11 128 -10z m2 -243 c21 -152 64 -266 135 -361 22
-29 39 -56 39 -62 0 -20 -106 -124 -180 -176 -98 -69 -169 -105 -208 -105 -24
0 -43 12 -81 50 -81 81 -105 148 -156 430 -15 80 -29 157 -32 171 -4 20 3 35
24 58 32 36 92 51 207 51 39 1 100 7 136 14 104 22 102 23 116 -70z m6421 -8
c73 2 69 7 114 -160 18 -67 41 -126 57 -148 15 -21 37 -52 50 -69 28 -41 28
-63 -3 -122 -14 -26 -35 -76 -45 -110 -22 -69 -102 -214 -170 -308 -56 -76
-102 -109 -154 -109 -55 0 -104 54 -144 157 -49 128 -104 350 -109 443 l-6 86
73 54 c67 51 75 61 116 148 24 51 53 106 64 123 20 27 25 29 58 22 21 -4 65
-7 99 -7z m-5983 -64 c8 -14 -54 -130 -81 -152 -37 -29 -67 -25 -106 15 -39
40 -74 101 -64 111 21 22 240 44 251 26z"/>
</g>
</svg>
