<svg width="43" height="44" viewBox="0 0 43 44" fill="none" xmlns="http://www.w3.org/2000/svg">
<path d="M3.61605 15.335V15.7875H4.81265V15.335H5.68858V15.7875H6.88518V15.335H7.08042H7.76145H7.95669V15.7875H9.15329V15.335H9.35066L8.47367 13.08L7.47586 10.515L6.44509 7.86523L3.43463 15.335H3.61605Z" fill="#E5F5FD"/>
<path d="M16.0908 15.335V15.7875H17.2874V15.335H18.1637V15.7875H19.3603V15.335H19.5556H20.2362H20.4315V15.7875H21.6281V15.335H21.8258L20.9485 13.08L19.9507 10.515L18.9202 7.86523L15.9094 15.335H16.0908Z" fill="#E5F5FD"/>
<path d="M16.3832 17.627V20.8922H8.96474V17.627H3.93243V20.8922V39.8751H21.4158V20.8922V17.627H16.3832Z" fill="#E5F5FD"/>
<path d="M16.5167 19.7344V20.1869H15.3201V19.7344H14.4442V20.1869H13.2476V19.7344H12.1761V20.1869H10.9795V19.7344H10.1036V20.1869H8.90698V19.7344H8.0307V20.1869V22.0262H17.3927V20.1869V19.7344H16.5167Z" fill="#6DC9F7"/>
<path d="M6.38586 23.2607C5.79021 23.2607 5.30725 23.7437 5.30725 24.3393V26.5203H7.46482V24.3393C7.46446 23.7437 6.9815 23.2607 6.38586 23.2607Z" fill="#43CAF9"/>
<path d="M19.0715 23.2607C18.4759 23.2607 17.9929 23.7437 17.9929 24.3393V26.5203H20.1505V24.3393C20.1501 23.7437 19.6672 23.2607 19.0715 23.2607Z" fill="#43CAF9"/>
<path d="M10.032 15.335H9.15327V15.7875H7.95667V15.335H7.76143H7.08039H6.88515V15.7875H5.68855V15.335H4.81262V15.7875H3.61602V15.335H2.73975V15.7875V17.6268H10.032V15.335Z" fill="#6DC9F7"/>
<path d="M22.5068 15.335H21.6281V15.7875H20.4315V15.335H20.2362H19.5555H19.3603V15.7875H18.1637V15.335H17.2874V15.7875H16.0908V15.335H15.2149V15.7875V17.6268H22.5068V15.335Z" fill="#6DC9F7"/>
<path d="M16.5167 19.7344V20.1869H15.3201V19.7344H14.4442V20.1869H13.2476V19.7344H12.1761V20.1869H10.9795V19.7344H10.1036V20.1869H8.90698V19.7344H8.0307V20.1869V22.0262H17.3927V20.1869V19.7344H16.5167Z" fill="#6DC9F7"/>
<path d="M12.657 31.0078C11.6326 31.0078 10.8024 31.838 10.8024 32.8624V39.8744H14.5116V32.8624C14.5116 31.838 13.681 31.0078 12.657 31.0078Z" fill="#6DC9F7"/>
<path d="M13.1885 31.0946C13.0191 31.0436 12.843 31.0078 12.657 31.0078C11.6326 31.0078 10.8024 31.838 10.8024 32.8624V39.8744H11.8654V32.8624C11.8654 32.0241 12.4249 31.3242 13.1885 31.0946Z" fill="white"/>
<path d="M34.1621 22.2627C32.0662 22.2627 30.3611 23.9678 30.3611 26.0637V28.369C30.3611 28.5873 30.3406 28.8006 30.3009 29.0075H23.6074C21.0307 29.0075 18.9341 31.1038 18.9341 33.6982C18.9341 36.275 21.0303 38.3716 23.6074 38.3716H34.6146C35.7761 38.3716 36.7215 37.4266 36.7215 36.2647C36.7215 35.1032 35.7765 34.1578 34.6146 34.1578H24.8051C24.4798 34.1578 24.2155 33.8931 24.2155 33.5682C24.2155 33.2429 24.4802 32.9786 24.8051 32.9786H26.968C28.8502 32.9786 30.4724 31.8444 31.1874 30.2236H34.1621C36.258 30.2236 37.9631 28.5185 37.9631 26.4226V26.064C37.9631 23.9678 36.258 22.2627 34.1621 22.2627ZM26.968 31.7621H24.8051C23.8094 31.7621 22.9994 32.5722 22.9994 33.5679C22.9994 34.5635 23.8094 35.3736 24.8051 35.3736H34.6146C35.1057 35.3736 35.5054 35.7733 35.5054 36.2644C35.5054 36.7558 35.1057 37.1555 34.6146 37.1555H23.6074C21.7011 37.1555 20.1502 35.6046 20.1502 33.6809C20.1502 31.7745 21.7011 30.2236 23.6074 30.2236H29.8084C29.2021 31.1491 28.155 31.7621 26.968 31.7621ZM36.7474 26.4223C36.7474 27.8478 35.5876 29.0072 34.1621 29.0072H31.5329C31.562 28.7985 31.5769 28.5851 31.5769 28.3686V26.0633C31.5769 24.6378 32.7366 23.4784 34.1618 23.4784C35.5869 23.4784 36.747 24.6382 36.747 26.0633V26.4223H36.7474Z" fill="#43CAF9"/>
<path d="M38.6406 39.875H3.04871C2.47256 39.875 2.00519 40.342 2.00519 40.9185V41.7232H39.6837V40.9185C39.6837 40.342 39.2167 39.875 38.6406 39.875Z" fill="#E5F5FD"/>
<path d="M7.42381 35.503C7.94278 34.251 7.34852 32.8153 6.09651 32.2963C4.84449 31.7774 3.40883 32.3716 2.88986 33.6236C2.3709 34.8757 2.96516 36.3113 4.21717 36.8303C5.46919 37.3493 6.90485 36.755 7.42381 35.503Z" fill="#43CAF9"/>
<path d="M15.6851 37.7339C16.8019 37.7339 17.7073 36.8285 17.7073 35.7117C17.7073 34.5948 16.8019 33.6895 15.6851 33.6895C14.5683 33.6895 13.6629 34.5948 13.6629 35.7117C13.6629 36.8285 14.5683 37.7339 15.6851 37.7339Z" fill="#43CAF9"/>
<path d="M37.647 7.50264C37.647 3.55425 34.4463 0.353516 30.4979 0.353516C26.5495 0.353516 23.3488 3.55425 23.3488 7.50264C23.3488 10.1244 26.4995 13.8074 28.6174 15.9876H32.3784C34.4962 13.8074 37.647 10.1244 37.647 7.50264Z" fill="#E5F5FD"/>
<path opacity="0.3" d="M35.5426 6.68191C35.5426 2.73352 33.2841 0.354492 30.4979 0.354492C27.7117 0.354492 25.4532 2.73352 25.4532 6.68191C25.4532 9.30366 27.6763 13.808 29.1713 15.9882H31.8249C33.3195 13.808 35.5426 9.3033 35.5426 6.68191Z" fill="#43CAF9"/>
<path d="M32.6587 6.16183C32.6587 2.21344 31.6913 0.353516 30.4979 0.353516C29.3045 0.353516 28.3372 2.21379 28.3372 6.16183C28.3372 8.78357 29.2896 13.807 29.9296 15.9873H31.0663C31.7066 13.8074 32.6587 8.78357 32.6587 6.16183Z" fill="#00B8F8"/>
<path d="M32.401 15.9873H28.454C28.2014 15.9873 27.9969 16.1921 27.9969 16.4444C27.9969 16.697 28.2018 16.9015 28.454 16.9015H32.401C32.6537 16.9015 32.8581 16.6967 32.8581 16.4444C32.8581 16.1921 32.6537 15.9873 32.401 15.9873Z" fill="#0089EF"/>
<path d="M28.3825 18.792C28.3825 19.9234 29.2999 20.8408 30.4313 20.8408C31.5627 20.8408 32.4801 19.9234 32.4801 18.792H28.3825Z" fill="#43CAF9"/>
<path d="M7.46486 26.8755C7.66045 26.8755 7.81919 26.7167 7.81919 26.5211V24.3402C7.81919 23.55 7.17643 22.9072 6.38625 22.9072C5.59608 22.9072 4.95331 23.55 4.95331 24.3402V26.5211C4.95331 26.7167 5.11205 26.8755 5.30765 26.8755H7.46486ZM5.66163 24.3398C5.66163 23.9405 5.98656 23.6155 6.3859 23.6155C6.78524 23.6155 7.11016 23.9405 7.11016 24.3398V26.1664H5.66128V24.3398H5.66163Z" fill="#1C3C6B"/>
<path d="M17.6382 26.5211C17.6382 26.7167 17.797 26.8755 17.9926 26.8755H20.1501C20.3457 26.8755 20.5045 26.7167 20.5045 26.5211V24.3402C20.5045 23.55 19.8617 22.9072 19.0715 22.9072C18.2814 22.9072 17.6386 23.55 17.6386 24.3402V26.5211H17.6382ZM18.3469 24.3398C18.3469 23.9405 18.6718 23.6155 19.0712 23.6155C19.4705 23.6155 19.7955 23.9405 19.7955 24.3398V26.1664H18.3466V24.3398H18.3469Z" fill="#1C3C6B"/>
<path d="M41.2287 41.3688H40.0384V40.9185C40.0384 40.1478 39.4113 39.5209 38.6409 39.5209H38.3178V26.4225V26.0635C38.3178 23.7724 36.4536 21.9082 34.1621 21.9082C31.8709 21.9082 30.0068 23.7724 30.0068 26.0635V28.3689C30.0068 28.4638 30.0022 28.5584 29.9937 28.653H23.6074C22.9586 28.653 22.34 28.7813 21.7698 29.0067V17.9807H22.5065C22.7024 17.9807 22.8608 17.822 22.8608 17.6264V15.3349C22.8608 15.1393 22.7024 14.9805 22.5065 14.9805H22.0675L19.2505 7.73681C19.1977 7.60145 19.0676 7.51181 18.9224 7.51074C18.9217 7.51074 18.9209 7.51074 18.9202 7.51074C18.7757 7.51074 18.6456 7.59862 18.5914 7.73256L15.6702 14.9805H15.2149C15.0193 14.9805 14.8606 15.1393 14.8606 15.3349V17.6264C14.8606 17.822 15.0193 17.9807 15.2149 17.9807H16.0288V19.8321H15.6745V19.7343C15.6745 19.5388 15.5158 19.38 15.3202 19.38H14.4439C14.2483 19.38 14.0895 19.5388 14.0895 19.7343V19.8321H13.6016V19.7343C13.6016 19.5388 13.4429 19.38 13.2473 19.38H12.1761C11.9805 19.38 11.8218 19.5388 11.8218 19.7343V19.8321H11.3339V19.7343C11.3339 19.5388 11.1751 19.38 10.9795 19.38H10.1032C9.90765 19.38 9.74891 19.5388 9.74891 19.7343V19.8321H9.31909V17.9807H10.0317C10.2273 17.9807 10.386 17.822 10.386 17.6264V15.3349C10.386 15.1393 10.2273 14.9805 10.0317 14.9805H9.59264L6.7753 7.73681C6.7225 7.60145 6.59246 7.51181 6.44718 7.51074C6.44647 7.51074 6.44577 7.51074 6.44506 7.51074C6.30049 7.51074 6.17044 7.59862 6.11623 7.73256L3.19507 14.9805H2.73974C2.54415 14.9805 2.3854 15.1393 2.3854 15.3349V17.6264C2.3854 17.822 2.54415 17.9807 2.73974 17.9807H3.57811V32.2276C2.83329 32.7329 2.34288 33.5865 2.34288 34.5524C2.34288 35.5183 2.83329 36.3719 3.57811 36.8772V39.5206H3.04873C2.27804 39.5206 1.65122 40.1478 1.65122 40.9181V41.3685H0.354338C0.158743 41.3685 0 41.5272 0 41.7228C0 41.9184 0.158743 42.0771 0.354338 42.0771H2.0052H39.6837H41.2283C41.4243 42.0771 41.5826 41.9184 41.5826 41.7228C41.5826 41.5272 41.4243 41.3688 41.2287 41.3688ZM37.6087 39.5206H33.5771V38.7258H34.6146C35.9717 38.7258 37.0758 37.6217 37.0758 36.2646C37.0758 34.9075 35.9717 33.8037 34.6146 33.8037H33.5771V30.5778H34.1617C35.5954 30.5778 36.8614 29.8482 37.6087 28.7409V39.5206ZM28.8364 39.5206V38.7258H32.8684V39.5206H28.8364ZM24.0961 39.5206V38.7258H28.1277V39.5206H24.0961ZM21.7702 39.5206V38.3732C22.2748 38.5724 22.819 38.69 23.3874 38.7148V39.5209H21.7702V39.5206ZM21.0615 38.026V39.5206H19.3561V36.3691C19.7841 37.0484 20.3691 37.6171 21.0615 38.026ZM24.8051 33.8037C24.6754 33.8037 24.5698 33.6981 24.5698 33.5681C24.5698 33.438 24.6754 33.3324 24.8051 33.3324H26.968C27.3645 33.3324 27.7528 33.2825 28.1277 33.1921V33.8037H24.8051ZM28.8364 32.9636C29.9387 32.5139 30.8646 31.677 31.4124 30.5778H32.8684V33.8037H28.8364V32.9636ZM30.3009 29.3621H31.5329H34.1621C35.7828 29.3621 37.1017 28.0436 37.1017 26.4228V26.0639C37.1017 24.4431 35.7828 23.1247 34.1621 23.1247C32.5414 23.1247 31.2229 24.4431 31.2229 26.0639V28.3692C31.2229 28.4642 31.2193 28.5591 31.2129 28.6534H30.702C30.7091 28.5588 30.7154 28.4642 30.7154 28.3692V26.0639C30.7154 24.1636 32.2614 22.6172 34.1621 22.6172C36.0628 22.6172 37.6091 24.1632 37.6091 26.0639V26.4228C37.6091 28.3231 36.0631 29.8695 34.1621 29.8695H31.1874H29.8083H23.6074C21.5055 29.8695 19.7958 31.5795 19.7958 33.6815C19.7958 35.7926 21.5058 37.5104 23.6074 37.5104H34.6142C35.3009 37.5104 35.8597 36.9516 35.8597 36.2649C35.8597 35.5782 35.3009 35.0198 34.6142 35.0198H24.8051C24.0046 35.0198 23.3537 34.3689 23.3537 33.5684C23.3537 32.768 24.0046 32.117 24.8051 32.117H26.968C28.1681 32.117 29.2783 31.542 29.9852 30.5778H30.6014C29.8353 31.8357 28.4636 32.6241 26.9676 32.6241H24.8047C24.2842 32.6241 23.8608 33.0475 23.8608 33.5684C23.8608 34.0893 24.2842 34.5127 24.8047 34.5127H34.6142C35.5809 34.5127 36.3668 35.2987 36.3668 36.2649C36.3668 37.2312 35.5805 38.0175 34.6142 38.0175H23.6074C21.2259 38.0175 19.2887 36.08 19.2887 33.6988C19.2887 31.3077 21.2263 29.3624 23.6074 29.3624H30.3009V29.3621ZM34.1617 23.833C35.392 23.833 36.3927 24.8336 36.3927 26.0635V26.4225C36.3927 27.6524 35.392 28.653 34.1617 28.653H33.5771V23.9134C33.7638 23.8624 33.9594 23.833 34.1617 23.833ZM32.8684 28.6534H31.9234C31.9287 28.5591 31.9312 28.4642 31.9312 28.3692V26.0639C31.9312 25.3162 32.3022 24.655 32.8684 24.25V28.6534ZM26.968 31.4084H24.8051C24.5563 31.4084 24.3186 31.4527 24.0961 31.5303V30.5778H29.0536C28.4955 31.1061 27.7539 31.4084 26.968 31.4084ZM23.3874 35.1938V36.7901C22.7843 36.7472 22.2294 36.5307 21.7702 36.1895V31.1862C22.2298 30.8467 22.7843 30.6317 23.3874 30.5891V31.9427C22.9335 32.3389 22.645 32.92 22.645 33.5684C22.645 34.2169 22.9338 34.7976 23.3874 35.1938ZM34.6146 35.7281C34.9105 35.7281 35.1514 35.9687 35.1514 36.2646C35.1514 36.5604 34.9105 36.8014 34.6146 36.8014H33.5771V35.7281H34.6146ZM32.8684 36.8014H28.8364V35.7281H32.8684V36.8014ZM28.1277 36.8014H24.0961V35.6062C24.3186 35.6838 24.5563 35.7281 24.8051 35.7281H28.1277V36.8014ZM21.0615 35.4595C20.7114 34.9542 20.5045 34.3419 20.5045 33.6807C20.5045 33.0234 20.7114 32.4143 21.0615 31.9119V35.4595ZM18.9142 8.82746L20.6182 13.2081L21.3588 15.112C21.3081 15.1733 21.2738 15.2488 21.2738 15.3345V15.4323H20.7858V15.3345C20.7858 15.1389 20.6271 14.9802 20.4315 14.9802H19.36C19.1644 14.9802 19.0056 15.1389 19.0056 15.3345V15.4323H18.5177V15.3345C18.5177 15.1389 18.359 14.9802 18.1634 14.9802H17.2875C17.0919 14.9802 16.9331 15.1389 16.9331 15.3345V15.4323H16.4452V15.3345C16.4452 15.2573 16.4154 15.1896 16.3733 15.1315L18.9142 8.82746ZM15.5693 15.6892H15.7369V15.787C15.7369 15.9826 15.8956 16.1414 16.0912 16.1414H17.2878C17.4834 16.1414 17.6421 15.9826 17.6421 15.787V15.6892H17.8094V15.787C17.8094 15.9826 17.9681 16.1414 18.1637 16.1414H19.3603C19.5559 16.1414 19.7147 15.9826 19.7147 15.787V15.6892H20.0775V15.787C20.0775 15.9826 20.2363 16.1414 20.4318 16.1414H21.6284C21.824 16.1414 21.9828 15.9826 21.9828 15.787V15.6892H22.1525V17.272H15.5693V15.6892ZM21.0615 17.9807V29.3553C19.5793 30.2337 18.5801 31.8492 18.5801 33.6981C18.5801 33.9759 18.6084 34.2466 18.652 34.5124C18.6513 34.5212 18.647 34.529 18.647 34.5382V39.5206H17.1025V37.615C17.6832 37.1812 18.0617 36.4906 18.0617 35.7118C18.0617 34.933 17.6832 34.2424 17.1025 33.8087V22.3805H17.3927C17.5883 22.3805 17.747 22.2218 17.747 22.0262V19.7347C17.747 19.5391 17.5883 19.3804 17.3927 19.3804H16.7375V17.9807H21.0615ZM16.0395 39.5206V38.0589C16.1607 38.0409 16.2794 38.0161 16.3938 37.9803V39.5206H16.0395ZM14.8655 39.5206V37.9395C15.0144 37.9945 15.1699 38.0345 15.3308 38.0589V39.5206H14.8655ZM9.0296 39.5206V22.3805H16.3938V33.4433C16.1699 33.3732 15.9318 33.3353 15.6851 33.3353C15.3967 33.3353 15.1214 33.3895 14.8655 33.4841V32.8629C14.8655 31.6447 13.8748 30.654 12.6566 30.654C11.4384 30.654 10.4477 31.6447 10.4477 32.8629V39.5206H9.0296ZM15.6851 37.3797C14.7653 37.3797 14.0173 36.6317 14.0173 35.7118C14.0173 34.7919 14.7653 34.0439 15.6851 34.0439C16.605 34.0439 17.353 34.7919 17.353 35.7118C17.353 36.6317 16.605 37.3797 15.6851 37.3797ZM11.1567 32.8629C11.1567 32.0359 11.8296 31.3627 12.657 31.3627C13.4843 31.3627 14.1572 32.0356 14.1572 32.8629V33.8944C13.6392 34.3306 13.3089 34.9829 13.3089 35.7118C13.3089 36.4407 13.6392 37.093 14.1572 37.5292V39.5206H11.1567V32.8629ZM10.1032 20.5412C10.2988 20.5412 10.4576 20.3824 10.4576 20.1868V20.089H10.6252V20.1868C10.6252 20.3824 10.7839 20.5412 10.9795 20.5412H12.1761C12.3717 20.5412 12.5305 20.3824 12.5305 20.1868V20.089H12.8929V20.1868C12.8929 20.3824 13.0517 20.5412 13.2473 20.5412H14.4439C14.6395 20.5412 14.7982 20.3824 14.7982 20.1868V20.089H14.9658V20.1868C14.9658 20.3824 15.1246 20.5412 15.3202 20.5412H16.5168C16.7124 20.5412 16.8711 20.3824 16.8711 20.1868V20.089H17.0383V21.6719H8.38506V20.089H8.55231V20.1868C8.55231 20.3824 8.71105 20.5412 8.90664 20.5412H10.1032ZM6.43939 8.82746L8.1434 13.2085L8.88397 15.1124C8.8333 15.1737 8.79893 15.2495 8.79893 15.3352V15.433H8.311V15.3352C8.311 15.1396 8.15226 14.9809 7.95666 14.9809H6.8855C6.6899 14.9809 6.53116 15.1396 6.53116 15.3352V15.433H6.04324V15.3352C6.04324 15.1396 5.88449 14.9809 5.6889 14.9809H4.81262C4.61703 14.9809 4.45828 15.1396 4.45828 15.3352V15.433H3.97036V15.3352C3.97036 15.258 3.94059 15.1903 3.89843 15.1322L6.43939 8.82746ZM3.09408 15.6892H3.26168V15.787C3.26168 15.9826 3.42043 16.1414 3.61602 16.1414H4.81262C5.00822 16.1414 5.16696 15.9826 5.16696 15.787V15.6892H5.33456V15.787C5.33456 15.9826 5.4933 16.1414 5.6889 16.1414H6.8855C7.08109 16.1414 7.23984 15.9826 7.23984 15.787V15.6892H7.60232V15.787C7.60232 15.9826 7.76107 16.1414 7.95666 16.1414H9.15326C9.34886 16.1414 9.5076 15.9826 9.5076 15.787V15.6892H9.67768V17.272H3.09408V15.6892ZM4.28678 17.9807H8.61077V19.38H8.03107C7.83548 19.38 7.67674 19.5388 7.67674 19.7343V22.0259C7.67674 22.2214 7.83548 22.3802 8.03107 22.3802H8.32128V39.5206H5.50535V37.3354C6.88656 37.1603 7.95879 35.9804 7.95879 34.5524C7.95879 33.004 6.69912 31.7446 5.15101 31.7446C4.84947 31.7446 4.55962 31.7935 4.28714 31.8821V17.9807H4.28678ZM3.05156 34.5524C3.05156 33.3948 3.99339 32.4533 5.15066 32.4533C6.30793 32.4533 7.24976 33.3951 7.24976 34.5524C7.24976 35.7097 6.30793 36.6515 5.15066 36.6515C3.99339 36.6515 3.05156 35.71 3.05156 34.5524ZM4.28678 37.2231C4.45049 37.2762 4.62128 37.3134 4.79632 37.3357V39.5209H4.28678V37.2231ZM2.35954 40.9181C2.35954 40.5382 2.66852 40.2293 3.04837 40.2293H3.93209H10.802H14.5112H21.4155H38.6402C39.0201 40.2293 39.3291 40.5382 39.3291 40.9181V41.3685H2.35954V40.9181Z" fill="#1C3C6B"/>
<path d="M36.9171 10.0756C36.7442 9.98273 36.5298 10.0476 36.4373 10.2201C36.2765 10.5196 36.0894 10.8363 35.8817 11.1609C35.7761 11.3257 35.8243 11.5447 35.9891 11.6502C36.0483 11.6882 36.1145 11.7062 36.1797 11.7062C36.2967 11.7062 36.4108 11.6485 36.4784 11.5429C36.696 11.2031 36.8923 10.8707 37.0617 10.5553C37.1542 10.3831 37.0893 10.1684 36.9171 10.0756Z" fill="#1C3C6B"/>
<path d="M27.6426 16.4452C27.6426 16.8739 27.9778 17.2223 28.3995 17.251V18.4369H28.3829C28.1869 18.4369 28.0285 18.5957 28.0285 18.7913C28.0285 20.1161 29.1064 21.1944 30.4313 21.1944C31.7562 21.1944 32.834 20.1165 32.834 18.7913C32.834 18.5957 32.6757 18.4369 32.4797 18.4369H32.4631V17.2502C32.8812 17.2176 33.2125 16.8711 33.2125 16.4452C33.2125 16.2212 33.1214 16.0182 32.974 15.8712C34.0147 14.7766 34.925 13.7147 35.6666 12.7144C35.7829 12.557 35.7499 12.3352 35.5929 12.2186C35.4356 12.1024 35.2141 12.135 35.0972 12.2923C34.3159 13.3465 33.3507 14.4701 32.2274 15.6338H28.7673C26.827 13.6229 23.7028 9.99694 23.7028 7.50311C23.7028 3.75669 26.7511 0.708676 30.4975 0.708676C34.244 0.708676 37.2923 3.75669 37.2923 7.50311C37.2923 7.97509 37.1765 8.51829 36.9476 9.11783C36.8781 9.30067 36.9699 9.50548 37.1524 9.57528C37.3352 9.64473 37.54 9.55296 37.6098 9.37047C37.8692 8.68979 38.001 8.06155 38.001 7.50311C38.001 3.36586 34.6351 0 30.4975 0C26.3599 0 22.9941 3.36586 22.9941 7.50311C22.9941 10.0079 25.602 13.3231 27.9569 15.8081C27.7674 15.9566 27.6426 16.1855 27.6426 16.4452ZM29.1082 17.2566H29.4246V18.4373H29.1082V17.2566ZM30.1329 18.4373V17.2566H30.7296V18.4373H30.1329ZM30.4313 20.4857C29.6184 20.4857 28.9377 19.9103 28.7744 19.1456H32.0882C31.9248 19.9106 31.2441 20.4857 30.4313 20.4857ZM31.4383 18.4373V17.2566H31.7547V18.4373H31.4383ZM32.401 16.5479H28.4541C28.3974 16.5479 28.3513 16.5019 28.3513 16.4452C28.3513 16.3885 28.3974 16.3421 28.4541 16.3421H32.401C32.4577 16.3421 32.5042 16.3881 32.5042 16.4452C32.5042 16.5022 32.4577 16.5479 32.401 16.5479Z" fill="#1C3C6B"/>
</svg>
